<mxfile host="app.diagrams.net" modified="2023-03-14T16:03:41.491Z" agent="5.0 (Windows NT 10.0; Win64; x64) AppleWebKit/537.36 (KHTML, like Gecko) Chrome/111.0.0.0 Safari/537.36" etag="bWl1H5VN-fvs7wvw6uvT" version="21.0.6" type="github">
  <diagram name="Page-1" id="aepuTdrFjPcCXe9jnQ7A">
    <mxGraphModel dx="724" dy="379" grid="1" gridSize="10" guides="1" tooltips="1" connect="1" arrows="1" fold="1" page="1" pageScale="1" pageWidth="850" pageHeight="1100" math="0" shadow="0">
      <root>
        <mxCell id="0" />
        <mxCell id="1" parent="0" />
        <mxCell id="twceubtKDlIxNp1lluug-1" value="" style="whiteSpace=wrap;html=1;aspect=fixed;" vertex="1" parent="1">
          <mxGeometry x="50" y="130" width="140" height="140" as="geometry" />
        </mxCell>
        <mxCell id="twceubtKDlIxNp1lluug-2" value="" style="whiteSpace=wrap;html=1;aspect=fixed;" vertex="1" parent="1">
          <mxGeometry x="240" y="130" width="140" height="140" as="geometry" />
        </mxCell>
        <mxCell id="twceubtKDlIxNp1lluug-3" value="" style="image;html=1;image=img/lib/clip_art/computers/Server_128x128.png" vertex="1" parent="1">
          <mxGeometry x="270" y="160" width="80" height="80" as="geometry" />
        </mxCell>
        <mxCell id="twceubtKDlIxNp1lluug-4" value="" style="sketch=0;aspect=fixed;pointerEvents=1;shadow=0;dashed=0;html=1;strokeColor=none;labelPosition=center;verticalLabelPosition=bottom;verticalAlign=top;align=center;fillColor=#00188D;shape=mxgraph.azure.laptop" vertex="1" parent="1">
          <mxGeometry x="95" y="150" width="50" height="30" as="geometry" />
        </mxCell>
        <mxCell id="twceubtKDlIxNp1lluug-5" value="" style="sketch=0;outlineConnect=0;fontColor=#232F3E;gradientColor=none;fillColor=#232F3D;strokeColor=none;dashed=0;verticalLabelPosition=bottom;verticalAlign=top;align=center;html=1;fontSize=12;fontStyle=0;aspect=fixed;pointerEvents=1;shape=mxgraph.aws4.mobile_client;" vertex="1" parent="1">
          <mxGeometry x="106.86" y="200" width="26.28" height="50" as="geometry" />
        </mxCell>
        <mxCell id="twceubtKDlIxNp1lluug-6" value="Client" style="rounded=1;whiteSpace=wrap;html=1;" vertex="1" parent="1">
          <mxGeometry x="95" y="280" width="45" height="20" as="geometry" />
        </mxCell>
        <mxCell id="twceubtKDlIxNp1lluug-7" value="Server" style="rounded=1;whiteSpace=wrap;html=1;" vertex="1" parent="1">
          <mxGeometry x="282.5" y="280" width="55" height="20" as="geometry" />
        </mxCell>
        <mxCell id="twceubtKDlIxNp1lluug-11" value="google.com" style="text;html=1;align=center;verticalAlign=middle;resizable=0;points=[];autosize=1;strokeColor=none;fillColor=none;" vertex="1" parent="1">
          <mxGeometry x="425" y="110" width="90" height="30" as="geometry" />
        </mxCell>
        <mxCell id="twceubtKDlIxNp1lluug-13" value="" style="endArrow=classic;html=1;rounded=0;exitX=0.217;exitY=1.052;exitDx=0;exitDy=0;exitPerimeter=0;" edge="1" parent="1" source="twceubtKDlIxNp1lluug-11" target="twceubtKDlIxNp1lluug-2">
          <mxGeometry width="50" height="50" relative="1" as="geometry">
            <mxPoint x="420" y="190" as="sourcePoint" />
            <mxPoint x="470" y="140" as="targetPoint" />
          </mxGeometry>
        </mxCell>
      </root>
    </mxGraphModel>
  </diagram>
</mxfile>
